<?xml version="1.0" encoding="utf-8" ?>
<svg xmlns="http://www.w3.org/2000/svg" xmlns:xlink="http://www.w3.org/1999/xlink" width="1024" height="1024">
	<path fill="#2A343C" transform="scale(2 2)" d="M100.196 70.5895L155.707 70.5577C177.148 70.5176 180.231 82.7393 180.237 101.377L180.231 177.847L222.797 94.6392C232.851 75.1208 238.029 67.0119 259.647 78.412L298.639 99.227C307.491 103.974 317.543 107.251 320.147 118.169C322.37 127.487 311.643 145.017 306.295 153.642C311.999 149.005 320.402 139.636 326.349 136.338C341.902 127.712 354.35 146.488 363.779 155.856L382.65 174.74C388.628 180.789 396.384 186.742 396.66 195.991C397.024 208.199 381.119 218.394 372.806 227.089C403.774 212.613 405.876 229.287 413.819 251.616C419.615 267.913 425.306 284.241 431.481 300.401L431.81 301.252C438.052 317.822 426.366 324.094 413.904 328.678L180.231 412.183C180.363 438.955 172.848 440.565 147.921 440.55L105.706 440.553C101.74 440.556 97.5024 440.852 93.5923 440.156C74.5661 436.765 78.5776 410.361 78.5839 396.107L78.5885 106.536C78.5502 89.6773 77.8512 71.756 100.196 70.5895ZM86.7212 358.714C87.0139 374.518 86.7277 390.384 86.7273 406.195C86.7268 425.646 82.828 433.198 105.054 433.136L118.48 433.109C132.104 433.113 145.794 433.425 159.411 433.115C171.83 433.315 172.405 425.03 172.338 414.898L172.325 358.714C167.023 357.873 154.203 358.724 148.186 358.723L86.7212 358.714ZM86.7212 185.367L86.7212 234.969L166.525 234.969C168.459 235.023 170.391 234.992 172.325 234.969L172.325 185.367C169.159 185.046 165.838 185.306 162.657 185.33L86.7212 185.367ZM367.819 330.869C368.579 332.548 369.201 334.325 369.883 336.039C381.241 332.819 395.394 326.952 406.572 322.78C414.075 319.979 422.472 319.363 424.912 310.4C426.201 305.664 414.637 278.328 412.383 272.025L403.611 246.716C400.789 238.464 401.449 232.111 392.676 230.079L392.134 230.43C393.077 234.875 395.213 239.714 396.671 244.08C399.056 251.221 421.04 307.956 419.345 310.613C416.038 315.798 401.775 318.828 396 320.848C386.605 324.134 377.297 327.864 367.819 330.869ZM237.186 377.118L240.197 383.234C258.643 376.743 282.132 369.059 299.735 361.178C298.887 359.409 298.152 357.638 297.537 355.775C279.431 362.784 255.888 372.481 237.186 377.118ZM229.547 379.852C224.264 382.219 196.961 391.845 194.295 391.176C191.536 393.057 179.366 400.304 180.11 403.97C181.524 404.621 189.683 400.802 191.435 400.171L217.844 390.894C222.725 389.217 227.58 387.421 232.522 385.935C231.711 383.824 230.817 381.733 229.547 379.852ZM256.732 315.019C244.116 327.135 230.667 338.713 217.883 350.957C219.09 352.617 220.33 354.215 221.663 355.775C229.279 347.132 241.414 336.953 250.099 328.953C253.824 325.521 257.204 321.864 261.557 319.213C259.746 317.927 258.25 316.638 256.732 315.019ZM346.384 232.933C333.671 242.549 319.973 257.015 307.85 268.013C309.284 269.314 310.552 270.822 311.85 272.259L336.889 249.206C341.389 245.018 346.072 240.91 350.329 236.477C349.105 235.053 347.969 233.93 346.384 232.933ZM166.525 127.511L166.525 177.847L172.325 177.847L172.325 127.511C170.388 127.576 168.462 127.55 166.525 127.511ZM166.525 299.494L166.525 350.957C168.47 350.832 170.379 350.881 172.325 350.957L172.325 299.494C170.396 299.441 168.455 299.489 166.525 299.494ZM256.732 218.132C248.175 231.624 240.55 248.148 232.522 262.28C234.231 263.239 235.993 264.008 237.793 264.776C245.902 250.689 253.076 234.573 261.557 221.084C259.882 220.195 258.314 219.175 256.732 218.132ZM283.424 168.06C278.462 177.969 273.042 187.486 267.774 197.213C265.316 201.749 263.221 207.114 259.975 211.12C261.746 212.174 263.529 213.128 265.384 214.025C267.05 211.507 268.424 208.684 269.861 206.026L277.883 190.875C281.373 184.181 285.338 177.541 288.376 170.639L283.424 168.06ZM166.525 242.746L166.525 291.593C168.471 291.888 170.375 291.774 172.325 291.593L172.325 242.746C170.38 242.827 168.47 242.832 166.525 242.746ZM229.547 269.635C220.391 282.261 212.314 301.097 203.805 315.019C205.521 315.725 207.19 316.449 208.831 317.317C217.284 302.35 225.25 287.089 233.945 272.259C232.413 271.454 230.944 270.662 229.547 269.635ZM385.845 190.272C384.843 192.532 384.769 195.142 383.464 197.275C380.046 202.859 358.209 221.351 352.432 227.089L356.329 231.001C362.807 225.737 368.674 219.359 374.79 213.654C381.748 207.163 393.808 201.063 385.845 190.272ZM200.225 321.788C193.3 333.732 187.302 347.315 180.231 358.714C180.153 362.905 180.118 367.121 180.231 371.31C182.94 364.512 186.79 358.239 190.269 351.823L204.963 324.169C203.414 323.299 201.837 322.534 200.225 321.788ZM182.315 383.234C179.835 386.451 180.165 388.325 180.231 392.176C184.446 389.823 188.346 385.603 191.907 382.353C199.186 375.71 208.118 367.021 215.735 361.178C214.362 359.422 212.747 357.945 211.122 356.432C210.409 358.013 184.976 382.363 182.315 383.234ZM160.572 78.4639C160.837 79.3814 161.777 79.9059 162.396 80.5759C167.721 86.3335 166.558 92.429 166.537 99.5898L166.525 119.762L172.325 119.762L172.322 100.552C172.396 90.9236 173.143 79.8455 160.572 78.4639Z"/>
	<path fill="#F0C735" transform="scale(2 2)" d="M201.197 348.159C204.673 350.604 208.045 353.505 211.122 356.432C210.409 358.013 184.976 382.363 182.315 383.234C186.428 373.604 195.51 357.622 201.197 348.159Z"/>
	<path fill="#FEFEFE" transform="scale(2 2)" d="M287.295 161.01C290.829 155.081 306.608 126.162 307.421 121.188C307.905 118.229 306.472 115.432 306.295 112.506C316.675 118.49 312.522 126.057 307.993 134.577L299.596 150.39C297.274 154.772 294.511 159.259 293.143 164.042C291.082 163.168 289.234 162.115 287.295 161.01Z"/>
	<path fill="#FEFEFE" transform="scale(2 2)" d="M301.812 273.612C303.258 274.984 304.734 276.267 306.295 277.508C299.143 282.903 292.751 289.693 286.148 295.767L273.862 307.053C271.482 309.264 269.096 311.388 266.904 313.794C265.351 312.381 264.159 311.181 263.123 309.327C266.142 305.98 269.764 303.012 273.083 299.958L289.891 284.545C293.895 280.924 298.011 277.45 301.812 273.612Z"/>
	<path fill="#5E86A1" transform="scale(2 2)" d="M220.814 366.581C224.305 370.58 226.951 375.246 229.547 379.852C224.264 382.219 196.961 391.845 194.295 391.176C202.869 382.693 212.204 375.026 220.814 366.581Z"/>
	<path fill="#FEFEFE" transform="scale(2 2)" d="M305.321 353.436C306.074 352.594 353.384 336.222 359.941 333.398C360.574 335.272 361.176 337.143 361.715 339.046C354.436 340.831 345.687 344.642 338.434 347.281L319.595 354.139C315.664 355.586 311.656 356.959 307.85 358.714C306.87 356.981 306.006 355.31 305.321 353.436Z"/>
	<path fill="#97BA3E" transform="scale(2 2)" d="M180.231 311.149C187.097 313.931 193.843 318.025 200.225 321.788C193.3 333.732 187.302 347.315 180.231 358.714C179.965 356.468 180.153 354.099 180.181 351.837L180.225 321.884C180.212 318.308 180.041 314.721 180.231 311.149Z"/>
	<path fill="#EB7671" transform="scale(2 2)" d="M232.522 290.51C239.916 296.966 250.445 307.717 256.732 315.019C244.116 327.135 230.667 338.713 217.883 350.957C213.192 348.514 209.364 344.14 204.963 341.13L224.598 305.059C227.236 300.213 230.072 295.454 232.522 290.51Z"/>
	<path fill="#2AA9CF" transform="scale(2 2)" d="M180.231 242.746C184.386 243.754 189.261 246.999 193.067 249.099L215.366 261.66C220.056 264.358 224.656 267.313 229.547 269.635C220.391 282.261 212.314 301.097 203.805 315.019C197.825 310.957 186.687 304.542 180.231 301.742L180.233 262.175C180.229 255.754 179.802 249.135 180.231 242.746Z"/>
	<path fill="#5E86A1" transform="scale(2 2)" d="M226.662 361.178C244.721 345.41 263.442 327.678 280.978 311.149C287.122 325.748 292.176 340.874 297.537 355.775C279.431 362.784 255.888 372.481 237.186 377.118C233.885 373.131 230.749 366.277 226.662 361.178Z"/>
	<path fill="#B47A9A" transform="scale(2 2)" d="M263.123 234.969C274.909 246.886 291.548 261.149 301.812 273.612C298.011 277.45 293.895 280.924 289.891 284.545L273.083 299.958C269.764 303.012 266.142 305.98 263.123 309.327C257.714 305.4 241.257 289.079 237.186 283.614C239.251 277.917 242.675 272.859 245.532 267.544L263.123 234.969Z"/>
	<path fill="#DEAE98" transform="scale(2 2)" d="M86.7212 119.762C86.3718 114.935 86.7107 109.857 86.7126 105.006C86.7238 77.2106 88.8058 78.4596 113.147 78.4513L144.707 78.4579C149.976 78.4623 155.315 78.6985 160.572 78.4639C160.837 79.3814 161.777 79.9059 162.396 80.5759C167.721 86.3335 166.558 92.429 166.537 99.5898L166.525 119.762L86.7212 119.762Z"/>
	<path fill="#DE4338" transform="scale(2 2)" d="M293.143 178.701L337.009 222.804C340.234 226.054 343.684 229.223 346.384 232.933C333.671 242.549 319.973 257.015 307.85 268.013C295.974 255.39 276.731 239.914 266.904 227.089C271.189 221.171 274.301 214.011 277.789 207.583L286.191 191.997C288.582 187.61 291.088 183.259 293.143 178.701Z"/>
	<path fill="#2AA9CF" transform="scale(2 2)" d="M188.715 179.769C194.663 182.565 201.149 186.958 207.061 190.204C223.701 199.341 240.412 208.433 256.732 218.132C248.175 231.624 240.55 248.148 232.522 262.28C228.751 260.934 225.078 258.046 221.562 256.099L194.406 240.86C189.694 238.202 185.032 235.425 180.231 232.933C180.204 227.674 179.681 198.993 180.593 195.826C181.654 192.137 186.684 183.635 188.715 179.769Z"/>
	<path fill="#A5C8D1" transform="scale(2 2)" d="M287.295 305.661C302.521 292.289 317.854 275.777 333.294 263.424C342.23 286.046 352.113 310.398 359.941 333.398C353.384 336.222 306.074 352.594 305.321 353.436C299.152 337.569 293.741 321.426 287.295 305.661Z"/>
	<path fill="#EB7671" transform="scale(2 2)" d="M297.537 172.744C302.514 167.059 327.125 144.379 331.778 142.459C338.619 139.636 344.496 147.332 348.683 151.546L360.957 163.947C365.299 168.345 384.116 185.65 385.845 190.272C384.843 192.532 384.769 195.142 383.464 197.275C380.046 202.859 358.209 221.351 352.432 227.089C334.036 209.139 316.592 189.992 297.537 172.744Z"/>
	<path fill="#0A8E81" transform="scale(2 2)" d="M214.045 129.151C228.389 136.362 242.034 144.711 256.054 152.508L272.418 161.516C276.102 163.548 280.054 165.534 283.424 168.06C278.462 177.969 273.042 187.486 267.774 197.213C265.316 201.749 263.221 207.114 259.975 211.12C257.542 210.224 252.277 206.244 249.48 204.728C232.28 195.406 208.968 180.059 191.611 172.744C197.065 159.045 207.135 142.455 214.045 129.151Z"/>
	<path fill="#97BA3E" transform="scale(2 2)" d="M86.7212 242.746L163.042 242.758C166.117 242.752 169.262 242.521 172.325 242.746C170.38 242.827 168.47 242.832 166.525 242.746L166.525 291.593C139.942 291.249 113.31 291.596 86.7212 291.593L86.7212 242.746Z"/>
	<path fill="#DE4338" transform="scale(2 2)" d="M86.7212 127.511L166.525 127.511L166.525 177.847L86.7212 177.847L86.7212 127.511Z"/>
	<path fill="#2AA9CF" transform="scale(2 2)" d="M217.883 121.946C222.202 112.075 230.546 95.563 235.943 86.7085C242.307 76.2689 250.927 82.6391 258.75 86.779L295.88 106.833C299.36 108.677 302.97 110.395 306.295 112.506C306.472 115.432 307.905 118.229 307.421 121.188C306.608 126.162 290.829 155.081 287.295 161.01C264.21 149.696 240.698 134.395 217.883 121.946Z"/>
	<path fill="#F0C735" transform="scale(2 2)" d="M86.7212 299.494L166.525 299.494L166.525 350.957C157.636 350.664 148.636 350.948 139.737 350.95L86.7212 350.957L86.7212 299.494Z"/>
	<path fill="#7DC7AC" transform="scale(2 2)" d="M86.7212 185.367L162.657 185.33C165.838 185.306 169.159 185.046 172.325 185.367L172.325 234.969C170.391 234.992 168.459 235.023 166.525 234.969L86.7212 234.969L86.7212 185.367ZM172.325 185.367C170.396 185.538 168.457 185.43 166.525 185.367C166.798 190.655 166.527 196.045 166.522 201.345L166.525 234.969C168.459 235.023 170.391 234.992 172.325 234.969L172.325 185.367Z"/>
	<path fill="#5E86A1" transform="scale(2 2)" d="M339.977 257.438C341.992 254.896 354.687 243.234 357.265 241.386C360.765 238.878 386.569 229.009 392.676 230.079L392.134 230.43C393.077 234.875 395.213 239.714 396.671 244.08C399.056 251.221 421.04 307.956 419.345 310.613C416.038 315.798 401.775 318.828 396 320.848C386.605 324.134 377.297 327.864 367.819 330.869C366.756 328.816 366.088 326.321 365.244 324.148L358.666 306.974C352.403 290.482 345.929 274.045 339.977 257.438Z"/>
	<path fill="#D4D3D3" transform="scale(2 2)" d="M86.7212 358.714L148.186 358.723C154.203 358.724 167.023 357.873 172.325 358.714L172.338 414.898C172.405 425.03 171.83 433.315 159.411 433.115C145.794 433.425 132.104 433.113 118.48 433.109L105.054 433.136C82.828 433.198 86.7268 425.646 86.7273 406.195C86.7277 390.384 87.0139 374.518 86.7212 358.714ZM127.126 374.085C99.7279 377.781 102.605 416.321 131.126 415.233C161.926 409.896 149.747 370.144 127.126 374.085Z"/>
	<path fill="#FEFEFE" transform="scale(2 2)" d="M172.325 358.714L172.338 414.898C172.405 425.03 171.83 433.315 159.411 433.115C166.579 425.715 166.525 426.112 166.53 416.144L166.525 358.714C168.455 358.776 170.398 358.89 172.325 358.714Z"/>
	<path fill="#2A343C" transform="scale(2 2)" d="M127.126 374.085C149.747 370.144 161.926 409.896 131.126 415.233C102.605 416.321 99.7279 377.781 127.126 374.085ZM127.126 381.795C109.505 385.478 113.954 410.092 131.126 407.488C148.758 402.415 143.675 380.28 127.126 381.795Z"/>
</svg>
